<?xml version="1.0" encoding="utf-8"?>
<!-- Generator: Adobe Illustrator 27.8.0, SVG Export Plug-In . SVG Version: 6.00 Build 0)  -->
<svg version="1.0" id="Layer_1" xmlns="http://www.w3.org/2000/svg" xmlns:xlink="http://www.w3.org/1999/xlink" x="0px" y="0px"
	 viewBox="0 0 336.2 67" style="enable-background:new 0 0 336.2 67;" xml:space="preserve">
<style type="text/css">
	.st0{fill:#FFFFFF;}
</style>
<path class="st0" d="M31.9,5.7L8.9,19v0v26.6v0l23,13.3l23-13.3v0V19v0L31.9,5.7z M43.4,25.7v13.2v0l-11.5,6.6l-11.5-6.6v0V25.7
	L31.9,19L43.4,25.7L43.4,25.7z"/>
<g>
	<polygon class="st0" points="38.7,28.4 31.9,24.5 25.2,28.4 31.9,32.3 	"/>
	<polygon class="st0" points="31.9,32.3 25.2,28.4 25.2,36.2 31.9,40.1 38.7,36.2 38.7,28.4 	"/>
</g>
<path class="st0" d="M131.7,58.4h-0.3c-4.3,0-8.6,0-12.9,0H118c0-0.2,0.1-0.4,0.1-0.5c3.1-16.1,8.2-35.1,14-51.1
	c0-0.1,0.1-0.2,0.1-0.3h0.3c11.3,0,22.7,0,34,0h0.6c0,0.2-0.1,0.3-0.1,0.5c-0.8,3.1-1.7,6.2-2.5,9.5c0,0.1-0.1,0.2-0.1,0.3H164
	c-7.2,0-14.3,0-21.5,0c-1.1,3.5-2.1,7.1-3.1,10.7c6.5,0,13.1,0,19.7,0h0.6c-0.1,0.2-0.1,0.4-0.2,0.6c-0.9,3.4-1.8,6.8-2.7,10.1
	c0,0.1-0.1,0.2-0.1,0.3h-0.4c-6.6,0-13.3,0-19.9,0c-1.8,6.8-3.3,13.5-4.7,19.7C131.8,58.2,131.8,58.3,131.7,58.4"/>
<path class="st0" d="M115.6,58.4h-0.5c-4.3,0-8.7,0-13,0h-0.4c0-0.1,0-0.3-0.1-0.4c-0.5-3.1-0.8-6.3-1.2-9.6
	c-5.1,0-10.2-0.1-15.2-0.1c-1.7,3.3-3.4,6.6-5.1,9.9c0,0.1-0.1,0.1-0.1,0.2h-0.3c-4.2,0-8.5,0-12.7,0h-0.8c0.1-0.2,0.3-0.4,0.4-0.7
	c9.8-16.6,18.6-34.4,30.7-51c0-0.1,0.1-0.1,0.1-0.2h0.2c4.6,0,9.3,0,13.9,0h0.4c0,0.1,0,0.3,0,0.4c-0.5,16.2,0.7,34.9,3.5,51.1
	C115.6,58.1,115.6,58.3,115.6,58.4 M90.7,37.8c3,0,6,0,9.1,0c-0.3-5.1-0.4-10.2-0.5-15.2C96.3,27.7,93.5,32.8,90.7,37.8"/>
<path class="st0" d="M199.1,58.4h-0.5c-4.3,0-8.7,0-13,0h-0.4c0-0.1,0-0.3,0-0.4c0.1-3.1,0.1-6.3,0.1-9.5c-5.2,0-10.5,0-15.7,0
	c-2,3.3-4,6.6-6,9.7c0,0.1-0.1,0.1-0.1,0.2h-0.3c-4.3,0-8.5,0-12.8,0h-0.8c0.1-0.2,0.3-0.4,0.4-0.6c10-16,21.6-35.3,30.9-51.2
	c0-0.1,0.1-0.1,0.1-0.2h0.3c4.6,0,9.3,0,13.9,0h0.4c0,0.1,0,0.3,0.1,0.4c2.6,16.1,3.8,35,3.5,51.1C199.1,58.1,199.1,58.3,199.1,58.4
	 M175.8,37.9c3.2,0,6.3,0,9.4,0c-0.1-5.1-0.3-10.3-0.7-15.4C181.8,27.6,178.8,32.8,175.8,37.9"/>
<path class="st0" d="M250.9,9.3c-1,3.8-1.9,7.7-2.9,11.5c-0.3,0-0.7,0-1,0c-1.5-1.5-3.3-2.9-5.7-4c-5.3-2.4-10.3-2.4-13.9-0.6
	c-2.7,1.3-4.8,4.4-2.9,7.1c1.7,2.3,11.7,3.1,16.5,6.4c5.1,3.4,4.4,8.8,3.6,12.5c-1.5,5-4.6,9.2-9.5,12.2c-4.9,3.2-11,4.7-17.8,4.7
	c-8.8,0-14.8-2.7-16.9-3.7c1.4-3.9,2.8-8,4-12.1c0.4,0,0.7,0,1.1,0c1.9,2.2,4.1,4,6.8,5c4.5,1.7,16,3.8,18.8-3.8
	c0.8-2.4-0.7-4.1-3.2-4.9c-5.3-1.8-14.6-2.5-17.1-8.7c-1-2.5-1.2-5.4-0.4-9.1c1.1-4.8,3.6-8.3,8.5-11.4c10.2-6.5,21.9-4.2,24.8-3.5
	C246.4,7.3,249,8.2,250.9,9.3"/>
<g>
	<path class="st0" d="M291.9,47c0-2.3-0.9-4.2-2.6-5.6c-1.7-1.5-4.7-2.7-9-3.9c-4.6-1.2-8.1-2.7-10.5-4.5c-2.4-1.8-3.6-4.3-3.6-7.5
		c0-3.2,1.3-5.8,4-7.9c2.6-2,6.1-3,10.2-3c4.3,0,7.8,1.2,10.5,3.6c2.7,2.4,4,5.3,3.9,8.8l-0.1,0.2h-3.2c0-2.8-1-5.1-3-6.9
		c-2-1.8-4.7-2.7-8.1-2.7c-3.4,0-6,0.8-7.9,2.3c-1.9,1.5-2.8,3.4-2.8,5.6c0,2.1,0.9,3.9,2.6,5.3c1.8,1.4,4.8,2.7,9.1,3.7
		c4.5,1.2,8,2.7,10.3,4.7c2.4,2,3.5,4.6,3.5,7.8c0,3.4-1.4,6-4.1,8c-2.7,2-6.2,3-10.5,3c-4.2,0-7.9-1.1-11-3.2
		c-3.1-2.1-4.6-5.2-4.6-9.2l0.1-0.2h3.2c0,3.3,1.2,5.7,3.7,7.3c2.4,1.6,5.3,2.4,8.6,2.4c3.3,0,6-0.7,8.1-2.2
		C290.9,51.3,291.9,49.4,291.9,47z"/>
	<path class="st0" d="M301.1,57.3V15.2h12.3c4.4,0,7.8,0.9,10.2,2.8c2.4,1.8,3.7,4.6,3.7,8.3c0,2.2-0.6,4-1.8,5.6
		c-1.2,1.6-2.9,2.7-5,3.3c2.6,0.5,4.6,1.7,6.2,3.6c1.6,1.9,2.4,4.2,2.4,6.7c0,3.8-1.2,6.6-3.7,8.7c-2.4,2-5.7,3-9.8,3H301.1z
		 M304.5,34.1h9.7c3,0,5.4-0.7,7.1-2c1.7-1.3,2.5-3.3,2.5-5.9c0-2.7-0.9-4.7-2.7-6c-1.8-1.3-4.4-2-7.7-2h-8.8V34.1z M304.5,37v17.3
		h11.1c3.1,0,5.5-0.8,7.3-2.3c1.8-1.5,2.7-3.7,2.7-6.4c0-2.5-0.8-4.6-2.4-6.2c-1.6-1.6-3.9-2.4-7-2.4H304.5z"/>
</g>
</svg>
